<svg width="739" height="342" viewBox="0 0 739 342" fill="none" xmlns="http://www.w3.org/2000/svg">
<g filter="url(#filter0_d_446_4501)">
<ellipse cx="369.5" cy="165" rx="365.5" ry="165" fill="#161D6F" fill-opacity="0.7" shape-rendering="crispEdges"/>
</g>
<g filter="url(#filter1_d_446_4501)">
<path d="M133.632 181.68V183H197.592V166.92H149.592L133.632 181.68ZM133.632 87L149.592 103.08H197.592V87H133.632ZM133.632 127.08V143.04H149.592H197.592V127.08H149.592H133.632ZM225.641 87H205.121L242.801 135L252.881 122.04L225.641 87ZM205.121 183H225.641L252.881 147.96L242.801 135L205.121 183ZM300.521 87H280.241L252.881 122.04L263.081 135L300.521 87ZM252.881 147.96L280.241 183H300.521L263.081 135L252.881 147.96ZM331.758 87C318.438 87 307.158 91.8 297.918 101.16C288.558 110.52 283.758 121.8 283.758 135C283.758 148.32 288.558 159.48 297.918 168.84C307.278 178.2 318.438 183 331.758 183C345.078 183 356.238 178.2 365.598 168.84C375.078 159.6 379.878 148.32 379.878 135C379.878 121.8 375.078 110.52 365.598 101.16C356.238 91.8 345.078 87 331.758 87ZM331.758 103.08C340.518 103.08 348.078 106.2 354.318 112.44C360.558 118.68 363.678 126.24 363.678 135C363.678 143.76 360.678 151.32 354.318 157.68C348.078 163.92 340.518 166.92 331.758 166.92C322.998 166.92 315.318 163.92 309.078 157.68C302.838 151.44 299.838 143.76 299.838 135C299.838 126.24 302.838 118.68 309.078 112.44C315.438 106.08 322.998 103.08 331.758 103.08ZM432.385 116.52C429.745 110.64 426.385 105.6 421.945 101.16C417.625 96.84 412.465 93.36 406.705 90.84C400.825 88.32 394.705 87 388.105 87H356.185L372.145 103.08H388.105C392.425 103.08 396.625 103.92 400.465 105.48C404.305 107.16 407.785 109.56 410.665 112.44C413.665 115.44 415.945 118.8 417.625 122.64C419.305 126.6 420.145 130.68 420.145 135C420.145 139.32 419.305 143.4 417.625 147.36C415.945 151.2 413.665 154.56 410.785 157.56C407.905 160.56 404.425 162.84 400.585 164.52C396.745 166.08 392.545 166.92 388.105 166.92H372.145L356.185 183H388.105C394.705 183 400.945 181.68 406.705 179.16C412.585 176.64 417.745 173.16 422.065 168.84C426.385 164.4 429.745 159.36 432.385 153.48C434.905 147.72 436.105 141.6 436.105 135C436.105 128.4 434.905 122.28 432.385 116.52ZM514.954 143.04C514.954 149.52 512.434 155.16 507.754 159.84C503.074 164.52 497.434 166.92 490.834 166.92C484.234 166.92 478.474 164.64 473.794 159.84C469.234 155.28 466.954 149.64 466.954 143.04V87H450.994V143.04C450.994 153.96 454.834 163.56 462.634 171.36C470.434 179.16 479.914 183 490.834 183C501.754 183 511.354 179.16 519.154 171.36C527.074 163.56 530.914 154.08 530.914 143.04H514.954ZM561.198 143.04C564.558 143.04 567.318 144.24 569.718 146.64C571.998 149.04 573.318 151.8 573.318 155.04C573.318 156.72 572.958 158.28 572.358 159.72C571.758 161.28 570.918 162.48 569.838 163.56C568.758 164.64 567.438 165.48 565.878 166.08C564.438 166.68 562.878 166.92 561.198 166.92V183C568.998 183 575.598 180.24 580.998 174.84C586.518 169.32 589.278 162.72 589.278 155.04C589.278 147.36 586.518 140.76 580.998 135.24C575.598 129.84 568.998 127.08 561.198 127.08H537.318C533.838 127.08 531.078 125.88 528.678 123.48C526.398 121.08 525.318 118.32 525.318 114.96C525.318 113.4 525.558 111.84 526.158 110.4C526.758 108.96 527.598 107.64 528.678 106.56C529.878 105.36 531.078 104.52 532.638 103.92C534.078 103.32 535.638 103.08 537.318 103.08V87C529.518 87 522.918 89.76 517.518 95.28C512.118 100.8 509.358 107.28 509.358 114.96C509.358 122.76 512.118 129.36 517.518 134.88C522.918 140.28 529.518 143.04 537.318 143.04H561.198Z" fill="white"/>
<path d="M308.148 270.4L261.048 249.7V244.7L308.148 221.2V229L270.448 246.8L308.148 262.6V270.4ZM356.574 242L325.274 282L356.674 242H356.574ZM342.374 282L365.074 252.9V252.8L342.374 282ZM387.874 202L356.574 242H356.674L325.274 282H342.374L365.074 252.8V252.9L373.574 242L404.774 202H387.874ZM431.044 262.6L468.744 246.9L431.044 229V221.2L478.144 244.7V249.7L431.044 270.4V262.6Z" fill="white"/>
</g>
<defs>
<filter id="filter0_d_446_4501" x="0" y="0" width="739" height="342" filterUnits="userSpaceOnUse" color-interpolation-filters="sRGB">
<feFlood flood-opacity="0" result="BackgroundImageFix"/>
<feColorMatrix in="SourceAlpha" type="matrix" values="0 0 0 0 0 0 0 0 0 0 0 0 0 0 0 0 0 0 127 0" result="hardAlpha"/>
<feOffset dy="8"/>
<feGaussianBlur stdDeviation="2"/>
<feComposite in2="hardAlpha" operator="out"/>
<feColorMatrix type="matrix" values="0 0 0 0 0 0 0 0 0 0 0 0 0 0 0 0 0 0 0.25 0"/>
<feBlend mode="normal" in2="BackgroundImageFix" result="effect1_dropShadow_446_4501"/>
<feBlend mode="normal" in="SourceGraphic" in2="effect1_dropShadow_446_4501" result="shape"/>
</filter>
<filter id="filter1_d_446_4501" x="129.632" y="87" width="463.647" height="203" filterUnits="userSpaceOnUse" color-interpolation-filters="sRGB">
<feFlood flood-opacity="0" result="BackgroundImageFix"/>
<feColorMatrix in="SourceAlpha" type="matrix" values="0 0 0 0 0 0 0 0 0 0 0 0 0 0 0 0 0 0 127 0" result="hardAlpha"/>
<feOffset dy="4"/>
<feGaussianBlur stdDeviation="2"/>
<feComposite in2="hardAlpha" operator="out"/>
<feColorMatrix type="matrix" values="0 0 0 0 0 0 0 0 0 0 0 0 0 0 0 0 0 0 0.25 0"/>
<feBlend mode="normal" in2="BackgroundImageFix" result="effect1_dropShadow_446_4501"/>
<feBlend mode="normal" in="SourceGraphic" in2="effect1_dropShadow_446_4501" result="shape"/>
</filter>
</defs>
</svg>
